<?xml version="1.0" encoding="utf-8"?>
<svg version="1.0" id="Layer_1" xmlns="http://www.w3.org/2000/svg" xmlns:xlink="http://www.w3.org/1999/xlink" x="0px" y="0px"
	 viewBox="0 0 24 20.1" enable-background="new 0 0 24 20.1" xml:space="preserve">
<path d="M23.3,1v9.7c0,0.2-0.2,0.4-0.4,0.4h-3.8c0,2.3,1.6,5.2,4.2,6.1l-1,2.3c-5.5-1.1-9.4-5.1-9.4-11.1V1c0-0.2,0.2-0.4,0.4-0.4
	l9.6,0C23.1,0.6,23.3,0.8,23.3,1z M11.2,1v9.7c0,0.2-0.2,0.4-0.4,0.4H7c0,2.3,1.6,5.2,4.2,6.1l-1,2.3c-5.5-1.1-9.4-5.1-9.4-11.1V1
	c0-0.2,0.2-0.4,0.4-0.4l9.6,0C11,0.6,11.2,0.8,11.2,1z"/>
</svg>
