<?xml version="1.0" encoding="UTF-8"?><svg id="Layer_2" xmlns="http://www.w3.org/2000/svg" viewBox="0 0 649.53 649.53"><g id="Layer_1-2"><path d="m324.77,0C145.4,0,0,145.4,0,324.77s145.4,324.77,324.77,324.77,324.77-145.4,324.77-324.77S504.13,0,324.77,0Zm196.55,240.9l-36.62,9.64c-.69.14-1.38-.28-1.51-.83-5.51-20.93-14.18-39.52-26.16-55.76-37.45-50.94-106.16-64.58-165.36-53.97-69.81,12.53-108.36,61.55-119.65,128.87-9.23,54.66-6.33,118,18.86,168.39,21.2,42.41,59.62,66.23,105.88,72.84,24.92,3.44,49.29,3.03,73.11-1.38,34.15-6.33,70.77-28.91,85.64-61.27,9.64-20.93,10.6-47.5,0-68.29-6.06-11.84-15.15-21.34-27.12-28.5-.55-.41-1.38-.14-1.65.41-.14.14-.14.28-.14.41-1.38,10.19-3.72,20.24-7.16,30.02-4.96,13.91-12.12,25.89-21.62,35.66-31.94,32.91-87.57,35.8-125.16,12.12-30.02-19-41.31-57.83-26.99-89.77,14.87-33.04,51.22-47.36,85.78-49.02,19.55-.96,37.59-.14,54.25,2.2.69.14,1.24-.41,1.38-1.1v-.41c-1.51-7.57-3.3-13.77-5.51-18.59-11.57-25.47-37.59-32.22-63.61-28.91-16.66,2.07-29.74,9.91-39.52,23.41-.41.55-1.1.69-1.65.28l-31.12-21.2c-.55-.41-.69-1.1-.28-1.79,16.66-23.41,39.24-37.04,67.88-40.76,23.68-3.17,50.26.55,70.91,13.08,30.98,19,41.99,53.15,44.75,87.71.28.69.55,1.1.96,1.24,58.24,24.51,86.88,83.16,67.88,143.88-12.94,41.44-49.84,74.9-89.36,90.05-49.84,19.14-116.76,17.9-165.91-2.48-99.69-41.31-122.95-156-113.04-251.42,6.88-66.78,34.7-131.9,96.11-165.36,46.26-25.33,105.47-28.91,156.14-18.31,52.6,11.01,95.28,42.13,121.16,89.22,7.99,14.46,14.46,30.43,19.28,48.19.14.69-.14,1.38-.83,1.51Z"/><path d="m387.48,334.67c-20.24-3.99-41.03-4.82-62.23-2.75-17.21,1.79-38.55,9.64-43.92,27.67-6.2,20.79,8.12,37.18,27.54,42.13,27.26,6.88,57.55.83,70.5-27.12,5.09-11.01,8.12-23.96,9.09-38.69,0-.69-.41-1.24-.96-1.24Z"/></g></svg>