<svg width="0" height="0" class="hidden">
  <symbol version="1.1" id="next" xmlns="http://www.w3.org/2000/svg" xmlns:xlink="http://www.w3.org/1999/xlink" x="0px" y="0px" xml:space="preserve" viewBox="0 0 256 256">
    <g>
      <path d="M119.6,0.1c-0.6,0.1-2.3,0.2-3.9,0.4c-36.4,3.3-70.4,22.9-92,53c-12,16.8-19.7,35.8-22.6,55.9
		c-1,7-1.2,9.1-1.2,18.6s0.1,11.6,1.2,18.6c7,48.1,41.2,88.4,87.6,103.4c8.3,2.7,17.1,4.5,27,5.6c3.9,0.4,20.6,0.4,24.5,0
		c17.2-1.9,31.8-6.2,46.1-13.5c2.2-1.1,2.6-1.4,2.3-1.7c-0.2-0.2-9.6-12.7-20.8-27.9l-20.5-27.6l-25.7-38
		C107.6,126.1,96,109,95.9,109c-0.1,0-0.2,16.8-0.3,37.4c-0.1,36.1-0.1,37.5-0.6,38.4c-0.7,1.2-1.2,1.7-2.2,2.3
		c-0.8,0.4-1.5,0.5-5.3,0.5h-4.3l-1.2-0.7c-0.8-0.5-1.3-1.1-1.7-1.8l-0.5-1.1l0.1-50.2l0.1-50.2l0.8-1c0.4-0.5,1.3-1.2,1.9-1.5
		c1-0.5,1.4-0.6,5.8-0.6c5.1,0,6,0.2,7.3,1.7c0.4,0.4,14.3,21.3,30.9,46.5s39.3,59.6,50.5,76.5l20.3,30.7l1-0.7
		c9.1-5.9,18.7-14.3,26.3-23.1c16.2-18.6,26.6-41.3,30.1-65.4c1-7,1.2-9.1,1.2-18.6s-0.1-11.6-1.2-18.6
		c-7-48.1-41.2-88.4-87.6-103.4c-8.2-2.7-16.9-4.5-26.7-5.6C138.2,0.1,121.7-0.1,119.6,0.1L119.6,0.1z M172,77.5
		c1.2,0.6,2.2,1.8,2.5,3c0.2,0.7,0.3,14.6,0.2,45.9l-0.1,45l-7.9-12.2l-8-12.2v-32.7c0-21.1,0.1-33,0.3-33.6
		c0.4-1.4,1.3-2.5,2.5-3.2c1-0.5,1.4-0.6,5.3-0.6C170.5,77,171.2,77,172,77.5z"></path>
    </g>
  </symbol>
  <symbol xmlns="http://www.w3.org/2000/svg" preserveAspectRatio="xMinYMin meet" viewBox="0 0 256 282" id="node">
    <g fill="#8CC84B">
      <path d="M116.504 3.58c6.962-3.985 16.03-4.003 22.986 0 34.995 19.774 70.001 39.517 104.99 59.303 6.581 3.707 10.983 11.031 10.916 18.614v118.968c.049 7.897-4.788 15.396-11.731 19.019-34.88 19.665-69.742 39.354-104.616 59.019-7.106 4.063-16.356 3.75-23.24-.646-10.457-6.062-20.932-12.094-31.39-18.15-2.137-1.274-4.546-2.288-6.055-4.36 1.334-1.798 3.719-2.022 5.657-2.807 4.365-1.388 8.374-3.616 12.384-5.778 1.014-.694 2.252-.428 3.224.193 8.942 5.127 17.805 10.403 26.777 15.481 1.914 1.105 3.852-.362 5.488-1.274 34.228-19.345 68.498-38.617 102.72-57.968 1.268-.61 1.969-1.956 1.866-3.345.024-39.245.006-78.497.012-117.742.145-1.576-.767-3.025-2.192-3.67-34.759-19.575-69.5-39.18-104.253-58.76a3.621 3.621 0 0 0-4.094-.006C91.2 39.257 56.465 58.88 21.712 78.454c-1.42.646-2.373 2.071-2.204 3.653.006 39.245 0 78.497 0 117.748a3.329 3.329 0 0 0 1.89 3.303c9.274 5.259 18.56 10.481 27.84 15.722 5.228 2.814 11.647 4.486 17.407 2.33 5.083-1.823 8.646-7.01 8.549-12.407.048-39.016-.024-78.038.036-117.048-.127-1.732 1.516-3.163 3.2-3 4.456-.03 8.918-.06 13.374.012 1.86-.042 3.14 1.823 2.91 3.568-.018 39.263.048 78.527-.03 117.79.012 10.464-4.287 21.85-13.966 26.97-11.924 6.177-26.662 4.867-38.442-1.056-10.198-5.09-19.93-11.097-29.947-16.55C5.368 215.886.555 208.357.604 200.466V81.497c-.073-7.74 4.504-15.197 11.29-18.85C46.768 42.966 81.636 23.27 116.504 3.58z"></path>
      <path d="M146.928 85.99c15.21-.979 31.493-.58 45.18 6.913 10.597 5.742 16.472 17.793 16.659 29.566-.296 1.588-1.956 2.464-3.472 2.355-4.413-.006-8.827.06-13.24-.03-1.872.072-2.96-1.654-3.195-3.309-1.268-5.633-4.34-11.212-9.642-13.929-8.139-4.075-17.576-3.87-26.451-3.785-6.479.344-13.446.905-18.935 4.715-4.214 2.886-5.494 8.712-3.99 13.404 1.418 3.369 5.307 4.456 8.489 5.458 18.33 4.794 37.754 4.317 55.734 10.626 7.444 2.572 14.726 7.572 17.274 15.366 3.333 10.446 1.872 22.932-5.56 31.318-6.027 6.901-14.805 10.657-23.56 12.697-11.647 2.597-23.734 2.663-35.562 1.51-11.122-1.268-22.696-4.19-31.282-11.768-7.342-6.375-10.928-16.308-10.572-25.895.085-1.619 1.697-2.748 3.248-2.615 4.444-.036 8.888-.048 13.332.006 1.775-.127 3.091 1.407 3.182 3.08.82 5.367 2.837 11 7.517 14.182 9.032 5.827 20.365 5.428 30.707 5.591 8.568-.38 18.186-.495 25.178-6.158 3.689-3.23 4.782-8.634 3.785-13.283-1.08-3.925-5.186-5.754-8.712-6.95-18.095-5.724-37.736-3.647-55.656-10.12-7.275-2.571-14.31-7.432-17.105-14.906-3.9-10.578-2.113-23.662 6.098-31.765 8.006-8.06 19.563-11.164 30.551-12.275z"></path>
    </g>
  </symbol>
  <symbol xmlns="http://www.w3.org/2000/svg" viewBox="0 0 512 512" id="react">
    <title>ionicons-v5_logos</title>
    <path d="M410.66,180.72h0q-7.67-2.62-15.45-4.88,1.29-5.25,2.38-10.56c11.7-56.9,4.05-102.74-22.06-117.83-25-14.48-66,.61-107.36,36.69q-6.1,5.34-11.95,11-3.9-3.76-8-7.36c-43.35-38.58-86.8-54.83-112.88-39.69-25,14.51-32.43,57.6-21.9,111.53q1.58,8,3.55,15.93c-6.15,1.75-12.09,3.62-17.77,5.6C48.46,198.9,16,226.73,16,255.59c0,29.82,34.84,59.72,87.77,77.85q6.44,2.19,13,4.07Q114.64,346,113,354.68c-10,53-2.2,95.07,22.75,109.49,25.77,14.89,69-.41,111.14-37.31q5-4.38,10-9.25,6.32,6.11,13,11.86c40.8,35.18,81.09,49.39,106,34.93,25.75-14.94,34.12-60.14,23.25-115.13q-1.25-6.3-2.88-12.86,4.56-1.35,8.93-2.79c55-18.27,90.83-47.81,90.83-78C496,226.62,462.5,198.61,410.66,180.72Zm-129-81.08c35.43-30.91,68.55-43.11,83.65-34.39h0c16.07,9.29,22.32,46.75,12.22,95.88q-1,4.8-2.16,9.57a487.83,487.83,0,0,0-64.18-10.16,481.27,481.27,0,0,0-40.57-50.75Q276,104.57,281.64,99.64ZM157.73,280.25q6.51,12.6,13.61,24.89,7.23,12.54,15.07,24.71a435.28,435.28,0,0,1-44.24-7.13C146.41,309,151.63,294.75,157.73,280.25Zm0-48.33c-6-14.19-11.08-28.15-15.25-41.63,13.7-3.07,28.3-5.58,43.52-7.48q-7.65,11.94-14.72,24.23T157.7,231.92Zm10.9,24.17q9.48-19.77,20.42-38.78h0q10.93-19,23.27-37.13c14.28-1.08,28.92-1.65,43.71-1.65s29.52.57,43.79,1.66q12.21,18.09,23.13,37t20.69,38.6Q334,275.63,323,294.73h0q-10.91,19-23,37.24c-14.25,1-29,1.55-44,1.55s-29.47-.47-43.46-1.38q-12.43-18.19-23.46-37.29T168.6,256.09ZM340.75,305q7.25-12.58,13.92-25.49h0a440.41,440.41,0,0,1,16.12,42.32A434.44,434.44,0,0,1,326,329.48Q333.62,317.39,340.75,305Zm13.72-73.07q-6.64-12.65-13.81-25h0q-7-12.18-14.59-24.06c15.31,1.94,30,4.52,43.77,7.67A439.89,439.89,0,0,1,354.47,231.93ZM256.23,124.48h0a439.75,439.75,0,0,1,28.25,34.18q-28.35-1.35-56.74,0C237.07,146.32,246.62,134.87,256.23,124.48ZM145.66,65.86c16.06-9.32,51.57,4,89,37.27,2.39,2.13,4.8,4.36,7.2,6.67A491.37,491.37,0,0,0,201,160.51a499.12,499.12,0,0,0-64.06,10q-1.83-7.36-3.3-14.82h0C124.59,109.46,130.58,74.61,145.66,65.86ZM122.25,317.71q-6-1.71-11.85-3.71c-23.4-8-42.73-18.44-56-29.81C42.52,274,36.5,263.83,36.5,255.59c0-17.51,26.06-39.85,69.52-55q8.19-2.85,16.52-5.21a493.54,493.54,0,0,0,23.4,60.75A502.46,502.46,0,0,0,122.25,317.71Zm111.13,93.67c-18.63,16.32-37.29,27.89-53.74,33.72h0c-14.78,5.23-26.55,5.38-33.66,1.27-15.14-8.75-21.44-42.54-12.85-87.86q1.53-8,3.5-16a480.85,480.85,0,0,0,64.69,9.39,501.2,501.2,0,0,0,41.2,51C239.54,405.83,236.49,408.65,233.38,411.38Zm23.42-23.22c-9.72-10.51-19.42-22.14-28.88-34.64q13.79.54,28.08.54c9.78,0,19.46-.21,29-.64A439.33,439.33,0,0,1,256.8,388.16Zm124.52,28.59c-2.86,15.44-8.61,25.74-15.72,29.86-15.13,8.78-47.48-2.63-82.36-32.72-4-3.44-8-7.13-12.07-11a484.54,484.54,0,0,0,40.23-51.2,477.84,477.84,0,0,0,65-10.05q1.47,5.94,2.6,11.64h0C383.81,377.58,384.5,399.56,381.32,416.75Zm17.4-102.64h0c-2.62.87-5.32,1.71-8.06,2.53a483.26,483.26,0,0,0-24.31-60.94,481.52,481.52,0,0,0,23.36-60.06c4.91,1.43,9.68,2.93,14.27,4.52,44.42,15.32,71.52,38,71.52,55.43C475.5,274.19,446.23,298.33,398.72,314.11Z"></path>
    <path d="M256,298.55a43,43,0,1,0-42.86-43A42.91,42.91,0,0,0,256,298.55Z"></path>
  </symbol>
  <symbol fill="none" xmlns="http://www.w3.org/2000/svg" viewBox="0 0 512 512" id="typescript">
    <rect fill="#3178c6" height="512" rx="50" width="512"></rect>
    <rect fill="#3178c6" height="512" rx="50" width="512"></rect>
    <path clip-rule="evenodd" d="m316.939 407.424v50.061c8.138 4.172 17.763 7.3 28.875 9.386s22.823 3.129 35.135 3.129c11.999 0 23.397-1.147 34.196-3.442 10.799-2.294 20.268-6.075 28.406-11.342 8.138-5.266 14.581-12.15 19.328-20.65s7.121-19.007 7.121-31.522c0-9.074-1.356-17.026-4.069-23.857s-6.625-12.906-11.738-18.225c-5.112-5.319-11.242-10.091-18.389-14.315s-15.207-8.213-24.18-11.967c-6.573-2.712-12.468-5.345-17.685-7.9-5.217-2.556-9.651-5.163-13.303-7.822-3.652-2.66-6.469-5.476-8.451-8.448-1.982-2.973-2.974-6.336-2.974-10.091 0-3.441.887-6.544 2.661-9.308s4.278-5.136 7.512-7.118c3.235-1.981 7.199-3.52 11.894-4.615 4.696-1.095 9.912-1.642 15.651-1.642 4.173 0 8.581.313 13.224.938 4.643.626 9.312 1.591 14.008 2.894 4.695 1.304 9.259 2.947 13.694 4.928 4.434 1.982 8.529 4.276 12.285 6.884v-46.776c-7.616-2.92-15.937-5.084-24.962-6.492s-19.381-2.112-31.066-2.112c-11.895 0-23.163 1.278-33.805 3.833s-20.006 6.544-28.093 11.967c-8.086 5.424-14.476 12.333-19.171 20.729-4.695 8.395-7.043 18.433-7.043 30.114 0 14.914 4.304 27.638 12.912 38.172 8.607 10.533 21.675 19.45 39.204 26.751 6.886 2.816 13.303 5.579 19.25 8.291s11.086 5.528 15.415 8.448c4.33 2.92 7.747 6.101 10.252 9.543 2.504 3.441 3.756 7.352 3.756 11.733 0 3.233-.783 6.231-2.348 8.995s-3.939 5.162-7.121 7.196-7.147 3.624-11.894 4.771c-4.748 1.148-10.303 1.721-16.668 1.721-10.851 0-21.597-1.903-32.24-5.71-10.642-3.806-20.502-9.516-29.579-17.13zm-84.159-123.342h64.22v-41.082h-179v41.082h63.906v182.918h50.874z" fill="#fff" fill-rule="evenodd"></path>
  </symbol>
</svg>