<svg width="0" height="0" class="hidden">
  <symbol version="1.1" id="next" xmlns="http://www.w3.org/2000/svg" xmlns:xlink="http://www.w3.org/1999/xlink" x="0px" y="0px" xml:space="preserve" viewBox="0 0 256 256">
    <g>
      <path d="M119.6,0.1c-0.6,0.1-2.3,0.2-3.9,0.4c-36.4,3.3-70.4,22.9-92,53c-12,16.8-19.7,35.8-22.6,55.9
		c-1,7-1.2,9.1-1.2,18.6s0.1,11.6,1.2,18.6c7,48.1,41.2,88.4,87.6,103.4c8.3,2.7,17.1,4.5,27,5.6c3.9,0.4,20.6,0.4,24.5,0
		c17.2-1.9,31.8-6.2,46.1-13.5c2.2-1.1,2.6-1.4,2.3-1.7c-0.2-0.2-9.6-12.7-20.8-27.9l-20.5-27.6l-25.7-38
		C107.6,126.1,96,109,95.9,109c-0.1,0-0.2,16.8-0.3,37.4c-0.1,36.1-0.1,37.5-0.6,38.4c-0.7,1.2-1.2,1.7-2.2,2.3
		c-0.8,0.4-1.5,0.5-5.3,0.5h-4.3l-1.2-0.7c-0.8-0.5-1.3-1.1-1.7-1.8l-0.5-1.1l0.1-50.2l0.1-50.2l0.8-1c0.4-0.5,1.3-1.2,1.9-1.5
		c1-0.5,1.4-0.6,5.8-0.6c5.1,0,6,0.2,7.3,1.7c0.4,0.4,14.3,21.3,30.9,46.5s39.3,59.6,50.5,76.5l20.3,30.7l1-0.7
		c9.1-5.9,18.7-14.3,26.3-23.1c16.2-18.6,26.6-41.3,30.1-65.4c1-7,1.2-9.1,1.2-18.6s-0.1-11.6-1.2-18.6
		c-7-48.1-41.2-88.4-87.6-103.4c-8.2-2.7-16.9-4.5-26.7-5.6C138.2,0.1,121.7-0.1,119.6,0.1L119.6,0.1z M172,77.5
		c1.2,0.6,2.2,1.8,2.5,3c0.2,0.7,0.3,14.6,0.2,45.9l-0.1,45l-7.9-12.2l-8-12.2v-32.7c0-21.1,0.1-33,0.3-33.6
		c0.4-1.4,1.3-2.5,2.5-3.2c1-0.5,1.4-0.6,5.3-0.6C170.5,77,171.2,77,172,77.5z"></path>
    </g>
  </symbol>
  <symbol xmlns="http://www.w3.org/2000/svg" preserveAspectRatio="xMinYMin meet" viewBox="0 0 256 282" id="node">
    <g>
      <path d="M116.504 3.58c6.962-3.985 16.03-4.003 22.986 0 34.995 19.774 70.001 39.517 104.99 59.303 6.581 3.707 10.983 11.031 10.916 18.614v118.968c.049 7.897-4.788 15.396-11.731 19.019-34.88 19.665-69.742 39.354-104.616 59.019-7.106 4.063-16.356 3.75-23.24-.646-10.457-6.062-20.932-12.094-31.39-18.15-2.137-1.274-4.546-2.288-6.055-4.36 1.334-1.798 3.719-2.022 5.657-2.807 4.365-1.388 8.374-3.616 12.384-5.778 1.014-.694 2.252-.428 3.224.193 8.942 5.127 17.805 10.403 26.777 15.481 1.914 1.105 3.852-.362 5.488-1.274 34.228-19.345 68.498-38.617 102.72-57.968 1.268-.61 1.969-1.956 1.866-3.345.024-39.245.006-78.497.012-117.742.145-1.576-.767-3.025-2.192-3.67-34.759-19.575-69.5-39.18-104.253-58.76a3.621 3.621 0 0 0-4.094-.006C91.2 39.257 56.465 58.88 21.712 78.454c-1.42.646-2.373 2.071-2.204 3.653.006 39.245 0 78.497 0 117.748a3.329 3.329 0 0 0 1.89 3.303c9.274 5.259 18.56 10.481 27.84 15.722 5.228 2.814 11.647 4.486 17.407 2.33 5.083-1.823 8.646-7.01 8.549-12.407.048-39.016-.024-78.038.036-117.048-.127-1.732 1.516-3.163 3.2-3 4.456-.03 8.918-.06 13.374.012 1.86-.042 3.14 1.823 2.91 3.568-.018 39.263.048 78.527-.03 117.79.012 10.464-4.287 21.85-13.966 26.97-11.924 6.177-26.662 4.867-38.442-1.056-10.198-5.09-19.93-11.097-29.947-16.55C5.368 215.886.555 208.357.604 200.466V81.497c-.073-7.74 4.504-15.197 11.29-18.85C46.768 42.966 81.636 23.27 116.504 3.58z"></path>
      <path d="M146.928 85.99c15.21-.979 31.493-.58 45.18 6.913 10.597 5.742 16.472 17.793 16.659 29.566-.296 1.588-1.956 2.464-3.472 2.355-4.413-.006-8.827.06-13.24-.03-1.872.072-2.96-1.654-3.195-3.309-1.268-5.633-4.34-11.212-9.642-13.929-8.139-4.075-17.576-3.87-26.451-3.785-6.479.344-13.446.905-18.935 4.715-4.214 2.886-5.494 8.712-3.99 13.404 1.418 3.369 5.307 4.456 8.489 5.458 18.33 4.794 37.754 4.317 55.734 10.626 7.444 2.572 14.726 7.572 17.274 15.366 3.333 10.446 1.872 22.932-5.56 31.318-6.027 6.901-14.805 10.657-23.56 12.697-11.647 2.597-23.734 2.663-35.562 1.51-11.122-1.268-22.696-4.19-31.282-11.768-7.342-6.375-10.928-16.308-10.572-25.895.085-1.619 1.697-2.748 3.248-2.615 4.444-.036 8.888-.048 13.332.006 1.775-.127 3.091 1.407 3.182 3.08.82 5.367 2.837 11 7.517 14.182 9.032 5.827 20.365 5.428 30.707 5.591 8.568-.38 18.186-.495 25.178-6.158 3.689-3.23 4.782-8.634 3.785-13.283-1.08-3.925-5.186-5.754-8.712-6.95-18.095-5.724-37.736-3.647-55.656-10.12-7.275-2.571-14.31-7.432-17.105-14.906-3.9-10.578-2.113-23.662 6.098-31.765 8.006-8.06 19.563-11.164 30.551-12.275z"></path>
    </g>
  </symbol>
  <symbol version="1.1" id="react" xmlns="http://www.w3.org/2000/svg" xmlns:xlink="http://www.w3.org/1999/xlink" x="0px" y="0px" xml:space="preserve" viewBox="0 0 3454.4 3059.7">
    <ellipse transform="matrix(0.7071 -0.7071 0.7071 0.7071 -572.4523 1665.6543)" cx="1724.4" cy="1523.8" rx="302.6" ry="302.6"></ellipse>
    <path d="M1724.4,908.6c406.2,0,783.6,58.3,1068.1,156.2c342.8,118,553.6,296.9,553.6,458.9
	c0,168.8-223.4,358.9-591.5,480.8c-278.3,92.2-644.6,140.4-1030.2,140.4c-395.4,0-769.7-45.2-1051.2-141.4
	c-356.1-121.7-570.6-314.2-570.6-479.8c0-160.7,201.3-338.2,539.3-456C927.5,968.2,1314.2,908.6,1724.4,908.6L1724.4,908.6z"></path>
    <path d="M1188.9,1218c202.9-351.9,442-649.7,669-847.2c273.5-238,533.8-331.2,674.1-250.3
	c146.2,84.3,199.3,372.8,121,752.7c-59.2,287.2-200.4,628.5-393.1,962.6c-197.5,342.5-423.7,644.2-647.6,840
	c-283.3,247.7-557.3,337.3-700.7,254.6c-139.2-80.3-192.4-343.3-125.7-695C842.3,1938,983.9,1573.3,1188.9,1218L1188.9,1218z"></path>
    <path d="M1189.4,1836.5c-203.5-351.6-342.1-707.4-399.9-1002.7c-69.6-355.8-20.4-627.9,119.8-709
	c146.1-84.6,422.5,13.5,712.5,271c219.3,194.7,444.4,487.5,637.6,821.3c198.1,342.2,346.6,688.8,404.3,980.5
	c73.1,369.2,13.9,651.3-129.4,734.2c-139.1,80.5-393.5-4.7-664.9-238.2C1640.2,2496.3,1394.9,2191.5,1189.4,1836.5L1189.4,1836.5z"></path>
  </symbol>
</svg>