<svg width="0" height="0" class="hidden">
  <symbol xmlns="http://www.w3.org/2000/svg" viewBox="0 0 600 600" id="check">
    <path d="m7.7,404.6c0,0 115.2,129.7 138.2,182.68l99,0c41.5-126.7 202.7-429.1 340.92-535.1c28.6-36.8-43.3-52-101.35-27.62-87.5,36.7-252.5,317.2-283.3,384.64-43.7,11.5-89.8-73.7-89.84-73.7z"></path>
  </symbol>
  <symbol xmlns="http://www.w3.org/2000/svg" xml:space="preserve" shape-rendering="geometricPrecision" text-rendering="geometricPrecision" image-rendering="optimizeQuality" fill-rule="evenodd" clip-rule="evenodd" viewBox="0 0 298 511.93" id="chevron-right">
    <path fill-rule="nonzero" d="M70.77 499.85c-16.24 16.17-42.53 16.09-58.69-.15-16.17-16.25-16.09-42.54.15-58.7l185.5-185.03L12.23 70.93c-16.24-16.16-16.32-42.45-.15-58.7 16.16-16.24 42.45-16.32 58.69-.15l215.15 214.61c16.17 16.25 16.09 42.54-.15 58.7l-215 214.46z"></path>
  </symbol>
  <symbol version="1.1" id="copy" xmlns="http://www.w3.org/2000/svg" xmlns:xlink="http://www.w3.org/1999/xlink" x="0px" y="0px" xml:space="preserve" viewBox="0 0 115.77 122.88">
    <g>
      <path d="M89.62,13.96v7.73h12.19h0.01v0.02c3.85,0.01,7.34,1.57,9.86,4.1c2.5,2.51,4.06,5.98,4.07,9.82h0.02v0.02 v73.27v0.01h-0.02c-0.01,3.84-1.57,7.33-4.1,9.86c-2.51,2.5-5.98,4.06-9.82,4.07v0.02h-0.02h-61.7H40.1v-0.02 c-3.84-0.01-7.34-1.57-9.86-4.1c-2.5-2.51-4.06-5.98-4.07-9.82h-0.02v-0.02V92.51H13.96h-0.01v-0.02c-3.84-0.01-7.34-1.57-9.86-4.1 c-2.5-2.51-4.06-5.98-4.07-9.82H0v-0.02V13.96v-0.01h0.02c0.01-3.85,1.58-7.34,4.1-9.86c2.51-2.5,5.98-4.06,9.82-4.07V0h0.02h61.7 h0.01v0.02c3.85,0.01,7.34,1.57,9.86,4.1c2.5,2.51,4.06,5.98,4.07,9.82h0.02V13.96L89.62,13.96z M79.04,21.69v-7.73v-0.02h0.02 c0-0.91-0.39-1.75-1.01-2.37c-0.61-0.61-1.46-1-2.37-1v0.02h-0.01h-61.7h-0.02v-0.02c-0.91,0-1.75,0.39-2.37,1.01 c-0.61,0.61-1,1.46-1,2.37h0.02v0.01v64.59v0.02h-0.02c0,0.91,0.39,1.75,1.01,2.37c0.61,0.61,1.46,1,2.37,1v-0.02h0.01h12.19V35.65 v-0.01h0.02c0.01-3.85,1.58-7.34,4.1-9.86c2.51-2.5,5.98-4.06,9.82-4.07v-0.02h0.02H79.04L79.04,21.69z M105.18,108.92V35.65v-0.02 h0.02c0-0.91-0.39-1.75-1.01-2.37c-0.61-0.61-1.46-1-2.37-1v0.02h-0.01h-61.7h-0.02v-0.02c-0.91,0-1.75,0.39-2.37,1.01 c-0.61,0.61-1,1.46-1,2.37h0.02v0.01v73.27v0.02h-0.02c0,0.91,0.39,1.75,1.01,2.37c0.61,0.61,1.46,1,2.37,1v-0.02h0.01h61.7h0.02 v0.02c0.91,0,1.75-0.39,2.37-1.01c0.61-0.61,1-1.46,1-2.37h-0.02V108.92L105.18,108.92z"></path>
    </g>
  </symbol>
  <symbol xmlns="http://www.w3.org/2000/svg" viewBox="0 0 24 24" id="external">
    <path d="M 5 3 C 3.9069372 3 3 3.9069372 3 5 L 3 19 C 3 20.093063 3.9069372 21 5 21 L 19 21 C 20.093063 21 21 20.093063 21 19 L 21 12 L 19 12 L 19 19 L 5 19 L 5 5 L 12 5 L 12 3 L 5 3 z M 14 3 L 14 5 L 17.585938 5 L 8.2929688 14.292969 L 9.7070312 15.707031 L 19 6.4140625 L 19 10 L 21 10 L 21 3 L 14 3 z"></path>
  </symbol>
  <symbol xmlns="http://www.w3.org/2000/svg" viewBox="0 0 48 48" id="github">
    <path fill-rule="evenodd" clip-rule="evenodd" d="M24.0432 0.179932C10.8147 0.179932 0.0876465 11.0878 0.0876465 24.5445C0.0876465 35.3096 6.95165 44.4426 16.4699 47.6643C17.6671 47.8899 18.1067 47.1358 18.1067 46.4922C18.1067 45.9112 18.0845 43.9919 18.0742 41.956C11.4097 43.4299 10.0034 39.0812 10.0034 39.0812C8.9137 36.265 7.34358 35.5161 7.34358 35.5161C5.17009 34.0039 7.50742 34.035 7.50742 34.035C9.91297 34.2065 11.1796 36.5458 11.1796 36.5458C13.3162 40.2707 16.7837 39.1938 18.1507 38.5712C18.3657 36.9969 18.9866 35.9212 19.6716 35.3132C14.3508 34.6971 8.7574 32.6079 8.7574 23.2719C8.7574 20.6118 9.6932 18.4383 11.2256 16.732C10.9769 16.1179 10.1569 13.6402 11.4577 10.2841C11.4577 10.2841 13.4693 9.62928 18.0472 12.7816C19.9581 12.2418 22.0074 11.971 24.0432 11.9618C26.0791 11.971 28.13 12.2418 30.0444 12.7816C34.6167 9.62928 36.6256 10.2841 36.6256 10.2841C37.9295 13.6402 37.1091 16.1179 36.8604 16.732C38.3964 18.4383 39.3259 20.6118 39.3259 23.2719C39.3259 32.6301 33.7218 34.6906 28.3874 35.2938C29.2467 36.0499 30.0123 37.5327 30.0123 39.8059C30.0123 43.0655 29.9845 45.6893 29.9845 46.4922C29.9845 47.1406 30.4157 47.9003 31.63 47.6611C41.1431 44.4357 47.9984 35.3059 47.9984 24.5445C47.9984 11.0878 37.273 0.179932 24.0432 0.179932Z"></path>
    <path fill-rule="evenodd" clip-rule="evenodd" d="M9.16084 35.1623C9.10808 35.2837 8.92084 35.3196 8.75026 35.2365C8.57651 35.157 8.47892 34.992 8.53525 34.8706C8.58682 34.7459 8.77446 34.7116 8.94781 34.7943C9.12196 34.8742 9.22113 35.0408 9.16084 35.1623Z"></path>
    <path fill-rule="evenodd" clip-rule="evenodd" d="M10.1312 36.263C10.0169 36.3707 9.79356 36.3207 9.64203 36.1504C9.48533 35.9805 9.45598 35.7534 9.57181 35.644C9.68963 35.5363 9.90622 35.5867 10.0633 35.7566C10.22 35.9285 10.2506 36.154 10.1312 36.263Z"></path>
    <path fill-rule="evenodd" clip-rule="evenodd" d="M11.0757 37.6662C10.9289 37.7699 10.6889 37.6727 10.5405 37.456C10.3938 37.2394 10.3938 36.9795 10.5437 36.8754C10.6925 36.7713 10.9289 36.8649 11.0793 37.08C11.2256 37.2999 11.2256 37.5601 11.0757 37.6662Z"></path>
    <path fill-rule="evenodd" clip-rule="evenodd" d="M12.3697 39.0219C12.2384 39.1692 11.9587 39.1296 11.754 38.9287C11.5446 38.7322 11.4863 38.4534 11.618 38.3062C11.7509 38.1585 12.0321 38.2 12.2384 38.3994C12.4463 38.5954 12.5097 38.8763 12.3697 39.0219Z"></path>
    <path fill-rule="evenodd" clip-rule="evenodd" d="M14.1548 39.8091C14.0969 39.9999 13.8275 40.0867 13.5562 40.0056C13.2853 39.9221 13.1079 39.6985 13.1627 39.5057C13.219 39.3136 13.4896 39.2232 13.7629 39.31C14.0334 39.3931 14.2112 39.615 14.1548 39.8091Z"></path>
    <path fill-rule="evenodd" clip-rule="evenodd" d="M16.1153 39.9552C16.122 40.1561 15.8919 40.3227 15.6071 40.3259C15.3207 40.3328 15.089 40.1702 15.0859 39.9725C15.0859 39.7696 15.3108 39.6045 15.5972 39.5997C15.882 39.594 16.1153 39.7554 16.1153 39.9552Z"></path>
    <path fill-rule="evenodd" clip-rule="evenodd" d="M17.9397 39.6392C17.9738 39.8353 17.7758 40.0367 17.493 40.0899C17.2149 40.142 16.9575 40.0209 16.9222 39.8264C16.8876 39.6255 17.0892 39.4242 17.3669 39.3721C17.6501 39.3221 17.9036 39.4399 17.9397 39.6392Z"></path>
  </symbol>
  <symbol xmlns="http://www.w3.org/2000/svg" viewBox="0 0 48 48" id="instagram">
    <path fill-rule="evenodd" clip-rule="evenodd" d="M0 24C0 10.7452 10.7452 0 24 0C37.2548 0 48 10.7452 48 24C48 37.2548 37.2548 48 24 48C10.7452 48 0 37.2548 0 24ZM24.0012 11.2C20.5249 11.2 20.0886 11.2152 18.7233 11.2773C17.3606 11.3397 16.4305 11.5555 15.6166 11.872C14.7747 12.1989 14.0606 12.6363 13.3491 13.348C12.6371 14.0595 12.1997 14.7736 11.8717 15.6152C11.5544 16.4294 11.3384 17.3598 11.2771 18.7219C11.216 20.0873 11.2 20.5238 11.2 24.0001C11.2 27.4764 11.2155 27.9114 11.2773 29.2767C11.34 30.6394 11.5557 31.5695 11.872 32.3834C12.1992 33.2253 12.6365 33.9394 13.3483 34.6509C14.0595 35.3629 14.7736 35.8013 15.615 36.1283C16.4294 36.4448 17.3598 36.6605 18.7222 36.7229C20.0876 36.7851 20.5236 36.8003 23.9996 36.8003C27.4762 36.8003 27.9111 36.7851 29.2765 36.7229C30.6391 36.6605 31.5703 36.4448 32.3848 36.1283C33.2264 35.8013 33.9394 35.3629 34.6506 34.6509C35.3626 33.9394 35.8 33.2253 36.128 32.3837C36.4427 31.5695 36.6587 30.6391 36.7227 29.277C36.784 27.9116 36.8 27.4764 36.8 24.0001C36.8 20.5238 36.784 20.0876 36.7227 18.7222C36.6587 17.3595 36.4427 16.4294 36.128 15.6155C35.8 14.7736 35.3626 14.0595 34.6506 13.348C33.9386 12.636 33.2266 12.1987 32.384 11.872C31.5679 11.5555 30.6373 11.3397 29.2746 11.2773C27.9092 11.2152 27.4746 11.2 23.9972 11.2H24.0012Z"></path>
    <path fill-rule="evenodd" clip-rule="evenodd" d="M22.8529 13.5067C23.1937 13.5062 23.574 13.5067 24.0012 13.5067C27.4188 13.5067 27.8239 13.519 29.1735 13.5803C30.4215 13.6374 31.0989 13.8459 31.5501 14.0211C32.1474 14.2531 32.5733 14.5304 33.021 14.9784C33.469 15.4264 33.7464 15.8531 33.9789 16.4505C34.1541 16.9011 34.3629 17.5785 34.4197 18.8265C34.481 20.1758 34.4944 20.5812 34.4944 23.9972C34.4944 27.4132 34.481 27.8186 34.4197 29.1679C34.3626 30.4159 34.1541 31.0933 33.9789 31.5439C33.7469 32.1413 33.469 32.5666 33.021 33.0144C32.573 33.4624 32.1477 33.7397 31.5501 33.9717C31.0994 34.1477 30.4215 34.3557 29.1735 34.4128C27.8242 34.4741 27.4188 34.4874 24.0012 34.4874C20.5833 34.4874 20.1782 34.4741 18.8289 34.4128C17.5809 34.3552 16.9035 34.1466 16.4521 33.9714C15.8547 33.7394 15.428 33.4621 14.98 33.0141C14.532 32.5661 14.2547 32.1405 14.0222 31.5429C13.847 31.0922 13.6382 30.4149 13.5814 29.1669C13.52 27.8175 13.5078 27.4122 13.5078 23.994C13.5078 20.5758 13.52 20.1726 13.5814 18.8233C13.6384 17.5753 13.847 16.8979 14.0222 16.4467C14.2542 15.8494 14.532 15.4227 14.98 14.9747C15.428 14.5267 15.8547 14.2494 16.4521 14.0168C16.9033 13.8408 17.5809 13.6328 18.8289 13.5755C20.0097 13.5222 20.4673 13.5062 22.8529 13.5035V13.5067ZM30.8338 15.632C29.9858 15.632 29.2978 16.3193 29.2978 17.1675C29.2978 18.0155 29.9858 18.7035 30.8338 18.7035C31.6818 18.7035 32.3698 18.0155 32.3698 17.1675C32.3698 16.3195 31.6818 15.632 30.8338 15.632ZM24.0012 17.4267C20.371 17.4267 17.4278 20.37 17.4278 24.0001C17.4278 27.6303 20.371 30.5722 24.0012 30.5722C27.6314 30.5722 30.5735 27.6303 30.5735 24.0001C30.5735 20.37 27.6314 17.4267 24.0012 17.4267Z"></path>
    <path fill-rule="evenodd" clip-rule="evenodd" d="M24.0012 19.7334C26.3575 19.7334 28.2679 21.6436 28.2679 24.0001C28.2679 26.3564 26.3575 28.2668 24.0012 28.2668C21.6446 28.2668 19.7345 26.3564 19.7345 24.0001C19.7345 21.6436 21.6446 19.7334 24.0012 19.7334Z"></path>
  </symbol>
  <symbol xmlns="http://www.w3.org/2000/svg" viewBox="0 0 48 48" id="linkedIn">
    <path fill-rule="evenodd" clip-rule="evenodd" d="M0 24C0 10.7452 10.7452 0 24 0C37.2548 0 48 10.7452 48 24C48 37.2548 37.2548 48 24 48C10.7452 48 0 37.2548 0 24ZM16.9605 19.8778H11.5216V36.2196H16.9605V19.8778ZM17.3188 14.8227C17.2835 13.2204 16.1377 12 14.277 12C12.4164 12 11.2 13.2204 11.2 14.8227C11.2 16.3918 12.3805 17.6473 14.2064 17.6473H14.2412C16.1377 17.6473 17.3188 16.3918 17.3188 14.8227ZM36.5754 26.8497C36.5754 21.8303 33.8922 19.4941 30.3131 19.4941C27.4254 19.4941 26.1326 21.0802 25.4107 22.1929V19.8783H19.9711C20.0428 21.4117 19.9711 36.22 19.9711 36.22H25.4107V27.0934C25.4107 26.605 25.446 26.1178 25.5898 25.7681C25.9829 24.7924 26.8779 23.7822 28.3805 23.7822C30.3494 23.7822 31.1365 25.2807 31.1365 27.4767V36.2196H36.5752L36.5754 26.8497Z"></path>
  </symbol>
  <symbol xmlns="http://www.w3.org/2000/svg" viewBox="0 0 256 256" id="moon">
    <rect fill="none" height="256" width="256"></rect>
    <path d="M216.7,152.6A91.9,91.9,0,0,1,103.4,39.3h0A92,92,0,1,0,216.7,152.6Z" stroke-linecap="round" stroke-linejoin="round" stroke-width="16"></path>
  </symbol>
  <symbol version="1.1" id="next" xmlns="http://www.w3.org/2000/svg" xmlns:xlink="http://www.w3.org/1999/xlink" x="0px" y="0px" xml:space="preserve" viewBox="0 0 256 256">
    <g>
      <path d="M119.6,0.1c-0.6,0.1-2.3,0.2-3.9,0.4c-36.4,3.3-70.4,22.9-92,53c-12,16.8-19.7,35.8-22.6,55.9
		c-1,7-1.2,9.1-1.2,18.6s0.1,11.6,1.2,18.6c7,48.1,41.2,88.4,87.6,103.4c8.3,2.7,17.1,4.5,27,5.6c3.9,0.4,20.6,0.4,24.5,0
		c17.2-1.9,31.8-6.2,46.1-13.5c2.2-1.1,2.6-1.4,2.3-1.7c-0.2-0.2-9.6-12.7-20.8-27.9l-20.5-27.6l-25.7-38
		C107.6,126.1,96,109,95.9,109c-0.1,0-0.2,16.8-0.3,37.4c-0.1,36.1-0.1,37.5-0.6,38.4c-0.7,1.2-1.2,1.7-2.2,2.3
		c-0.8,0.4-1.5,0.5-5.3,0.5h-4.3l-1.2-0.7c-0.8-0.5-1.3-1.1-1.7-1.8l-0.5-1.1l0.1-50.2l0.1-50.2l0.8-1c0.4-0.5,1.3-1.2,1.9-1.5
		c1-0.5,1.4-0.6,5.8-0.6c5.1,0,6,0.2,7.3,1.7c0.4,0.4,14.3,21.3,30.9,46.5s39.3,59.6,50.5,76.5l20.3,30.7l1-0.7
		c9.1-5.9,18.7-14.3,26.3-23.1c16.2-18.6,26.6-41.3,30.1-65.4c1-7,1.2-9.1,1.2-18.6s-0.1-11.6-1.2-18.6
		c-7-48.1-41.2-88.4-87.6-103.4c-8.2-2.7-16.9-4.5-26.7-5.6C138.2,0.1,121.7-0.1,119.6,0.1L119.6,0.1z M172,77.5
		c1.2,0.6,2.2,1.8,2.5,3c0.2,0.7,0.3,14.6,0.2,45.9l-0.1,45l-7.9-12.2l-8-12.2v-32.7c0-21.1,0.1-33,0.3-33.6
		c0.4-1.4,1.3-2.5,2.5-3.2c1-0.5,1.4-0.6,5.3-0.6C170.5,77,171.2,77,172,77.5z"></path>
    </g>
  </symbol>
  <symbol xmlns="http://www.w3.org/2000/svg" preserveAspectRatio="xMinYMin meet" viewBox="0 0 256 282" id="node">
    <g fill="#8CC84B">
      <path d="M116.504 3.58c6.962-3.985 16.03-4.003 22.986 0 34.995 19.774 70.001 39.517 104.99 59.303 6.581 3.707 10.983 11.031 10.916 18.614v118.968c.049 7.897-4.788 15.396-11.731 19.019-34.88 19.665-69.742 39.354-104.616 59.019-7.106 4.063-16.356 3.75-23.24-.646-10.457-6.062-20.932-12.094-31.39-18.15-2.137-1.274-4.546-2.288-6.055-4.36 1.334-1.798 3.719-2.022 5.657-2.807 4.365-1.388 8.374-3.616 12.384-5.778 1.014-.694 2.252-.428 3.224.193 8.942 5.127 17.805 10.403 26.777 15.481 1.914 1.105 3.852-.362 5.488-1.274 34.228-19.345 68.498-38.617 102.72-57.968 1.268-.61 1.969-1.956 1.866-3.345.024-39.245.006-78.497.012-117.742.145-1.576-.767-3.025-2.192-3.67-34.759-19.575-69.5-39.18-104.253-58.76a3.621 3.621 0 0 0-4.094-.006C91.2 39.257 56.465 58.88 21.712 78.454c-1.42.646-2.373 2.071-2.204 3.653.006 39.245 0 78.497 0 117.748a3.329 3.329 0 0 0 1.89 3.303c9.274 5.259 18.56 10.481 27.84 15.722 5.228 2.814 11.647 4.486 17.407 2.33 5.083-1.823 8.646-7.01 8.549-12.407.048-39.016-.024-78.038.036-117.048-.127-1.732 1.516-3.163 3.2-3 4.456-.03 8.918-.06 13.374.012 1.86-.042 3.14 1.823 2.91 3.568-.018 39.263.048 78.527-.03 117.79.012 10.464-4.287 21.85-13.966 26.97-11.924 6.177-26.662 4.867-38.442-1.056-10.198-5.09-19.93-11.097-29.947-16.55C5.368 215.886.555 208.357.604 200.466V81.497c-.073-7.74 4.504-15.197 11.29-18.85C46.768 42.966 81.636 23.27 116.504 3.58z"></path>
      <path d="M146.928 85.99c15.21-.979 31.493-.58 45.18 6.913 10.597 5.742 16.472 17.793 16.659 29.566-.296 1.588-1.956 2.464-3.472 2.355-4.413-.006-8.827.06-13.24-.03-1.872.072-2.96-1.654-3.195-3.309-1.268-5.633-4.34-11.212-9.642-13.929-8.139-4.075-17.576-3.87-26.451-3.785-6.479.344-13.446.905-18.935 4.715-4.214 2.886-5.494 8.712-3.99 13.404 1.418 3.369 5.307 4.456 8.489 5.458 18.33 4.794 37.754 4.317 55.734 10.626 7.444 2.572 14.726 7.572 17.274 15.366 3.333 10.446 1.872 22.932-5.56 31.318-6.027 6.901-14.805 10.657-23.56 12.697-11.647 2.597-23.734 2.663-35.562 1.51-11.122-1.268-22.696-4.19-31.282-11.768-7.342-6.375-10.928-16.308-10.572-25.895.085-1.619 1.697-2.748 3.248-2.615 4.444-.036 8.888-.048 13.332.006 1.775-.127 3.091 1.407 3.182 3.08.82 5.367 2.837 11 7.517 14.182 9.032 5.827 20.365 5.428 30.707 5.591 8.568-.38 18.186-.495 25.178-6.158 3.689-3.23 4.782-8.634 3.785-13.283-1.08-3.925-5.186-5.754-8.712-6.95-18.095-5.724-37.736-3.647-55.656-10.12-7.275-2.571-14.31-7.432-17.105-14.906-3.9-10.578-2.113-23.662 6.098-31.765 8.006-8.06 19.563-11.164 30.551-12.275z"></path>
    </g>
  </symbol>
  <symbol version="1.0" id="quote" xmlns="http://www.w3.org/2000/svg" xmlns:xlink="http://www.w3.org/1999/xlink" x="0px" y="0px" enable-background="new 0 0 24 20.1" xml:space="preserve" viewBox="0 0 24 20.1">
    <path d="M23.3,1v9.7c0,0.2-0.2,0.4-0.4,0.4h-3.8c0,2.3,1.6,5.2,4.2,6.1l-1,2.3c-5.5-1.1-9.4-5.1-9.4-11.1V1c0-0.2,0.2-0.4,0.4-0.4
	l9.6,0C23.1,0.6,23.3,0.8,23.3,1z M11.2,1v9.7c0,0.2-0.2,0.4-0.4,0.4H7c0,2.3,1.6,5.2,4.2,6.1l-1,2.3c-5.5-1.1-9.4-5.1-9.4-11.1V1
	c0-0.2,0.2-0.4,0.4-0.4l9.6,0C11,0.6,11.2,0.8,11.2,1z"></path>
  </symbol>
  <symbol xmlns="http://www.w3.org/2000/svg" viewBox="0 0 512 512" id="react">
    <title>ionicons-v5_logos</title>
    <path d="M410.66,180.72h0q-7.67-2.62-15.45-4.88,1.29-5.25,2.38-10.56c11.7-56.9,4.05-102.74-22.06-117.83-25-14.48-66,.61-107.36,36.69q-6.1,5.34-11.95,11-3.9-3.76-8-7.36c-43.35-38.58-86.8-54.83-112.88-39.69-25,14.51-32.43,57.6-21.9,111.53q1.58,8,3.55,15.93c-6.15,1.75-12.09,3.62-17.77,5.6C48.46,198.9,16,226.73,16,255.59c0,29.82,34.84,59.72,87.77,77.85q6.44,2.19,13,4.07Q114.64,346,113,354.68c-10,53-2.2,95.07,22.75,109.49,25.77,14.89,69-.41,111.14-37.31q5-4.38,10-9.25,6.32,6.11,13,11.86c40.8,35.18,81.09,49.39,106,34.93,25.75-14.94,34.12-60.14,23.25-115.13q-1.25-6.3-2.88-12.86,4.56-1.35,8.93-2.79c55-18.27,90.83-47.81,90.83-78C496,226.62,462.5,198.61,410.66,180.72Zm-129-81.08c35.43-30.91,68.55-43.11,83.65-34.39h0c16.07,9.29,22.32,46.75,12.22,95.88q-1,4.8-2.16,9.57a487.83,487.83,0,0,0-64.18-10.16,481.27,481.27,0,0,0-40.57-50.75Q276,104.57,281.64,99.64ZM157.73,280.25q6.51,12.6,13.61,24.89,7.23,12.54,15.07,24.71a435.28,435.28,0,0,1-44.24-7.13C146.41,309,151.63,294.75,157.73,280.25Zm0-48.33c-6-14.19-11.08-28.15-15.25-41.63,13.7-3.07,28.3-5.58,43.52-7.48q-7.65,11.94-14.72,24.23T157.7,231.92Zm10.9,24.17q9.48-19.77,20.42-38.78h0q10.93-19,23.27-37.13c14.28-1.08,28.92-1.65,43.71-1.65s29.52.57,43.79,1.66q12.21,18.09,23.13,37t20.69,38.6Q334,275.63,323,294.73h0q-10.91,19-23,37.24c-14.25,1-29,1.55-44,1.55s-29.47-.47-43.46-1.38q-12.43-18.19-23.46-37.29T168.6,256.09ZM340.75,305q7.25-12.58,13.92-25.49h0a440.41,440.41,0,0,1,16.12,42.32A434.44,434.44,0,0,1,326,329.48Q333.62,317.39,340.75,305Zm13.72-73.07q-6.64-12.65-13.81-25h0q-7-12.18-14.59-24.06c15.31,1.94,30,4.52,43.77,7.67A439.89,439.89,0,0,1,354.47,231.93ZM256.23,124.48h0a439.75,439.75,0,0,1,28.25,34.18q-28.35-1.35-56.74,0C237.07,146.32,246.62,134.87,256.23,124.48ZM145.66,65.86c16.06-9.32,51.57,4,89,37.27,2.39,2.13,4.8,4.36,7.2,6.67A491.37,491.37,0,0,0,201,160.51a499.12,499.12,0,0,0-64.06,10q-1.83-7.36-3.3-14.82h0C124.59,109.46,130.58,74.61,145.66,65.86ZM122.25,317.71q-6-1.71-11.85-3.71c-23.4-8-42.73-18.44-56-29.81C42.52,274,36.5,263.83,36.5,255.59c0-17.51,26.06-39.85,69.52-55q8.19-2.85,16.52-5.21a493.54,493.54,0,0,0,23.4,60.75A502.46,502.46,0,0,0,122.25,317.71Zm111.13,93.67c-18.63,16.32-37.29,27.89-53.74,33.72h0c-14.78,5.23-26.55,5.38-33.66,1.27-15.14-8.75-21.44-42.54-12.85-87.86q1.53-8,3.5-16a480.85,480.85,0,0,0,64.69,9.39,501.2,501.2,0,0,0,41.2,51C239.54,405.83,236.49,408.65,233.38,411.38Zm23.42-23.22c-9.72-10.51-19.42-22.14-28.88-34.64q13.79.54,28.08.54c9.78,0,19.46-.21,29-.64A439.33,439.33,0,0,1,256.8,388.16Zm124.52,28.59c-2.86,15.44-8.61,25.74-15.72,29.86-15.13,8.78-47.48-2.63-82.36-32.72-4-3.44-8-7.13-12.07-11a484.54,484.54,0,0,0,40.23-51.2,477.84,477.84,0,0,0,65-10.05q1.47,5.94,2.6,11.64h0C383.81,377.58,384.5,399.56,381.32,416.75Zm17.4-102.64h0c-2.62.87-5.32,1.71-8.06,2.53a483.26,483.26,0,0,0-24.31-60.94,481.52,481.52,0,0,0,23.36-60.06c4.91,1.43,9.68,2.93,14.27,4.52,44.42,15.32,71.52,38,71.52,55.43C475.5,274.19,446.23,298.33,398.72,314.11Z"></path>
    <path d="M256,298.55a43,43,0,1,0-42.86-43A42.91,42.91,0,0,0,256,298.55Z"></path>
  </symbol>
  <symbol enable-background="new 0 0 512 512" id="sun" version="1.1" xml:space="preserve" xmlns="http://www.w3.org/2000/svg" xmlns:xlink="http://www.w3.org/1999/xlink" viewBox="0 0 512 512">
    <g>
      <g>
        <path d="M256,144c-61.75,0-112,50.25-112,112s50.25,112,112,112s112-50.25,112-112S317.75,144,256,144z M256,336    c-44.188,0-80-35.812-80-80c0-44.188,35.812-80,80-80c44.188,0,80,35.812,80,80C336,300.188,300.188,336,256,336z M256,112    c8.833,0,16-7.167,16-16V64c0-8.833-7.167-16-16-16s-16,7.167-16,16v32C240,104.833,247.167,112,256,112z M256,400    c-8.833,0-16,7.167-16,16v32c0,8.833,7.167,16,16,16s16-7.167,16-16v-32C272,407.167,264.833,400,256,400z M380.438,154.167    l22.625-22.625c6.25-6.25,6.25-16.375,0-22.625s-16.375-6.25-22.625,0l-22.625,22.625c-6.25,6.25-6.25,16.375,0,22.625    S374.188,160.417,380.438,154.167z M131.562,357.834l-22.625,22.625c-6.25,6.249-6.25,16.374,0,22.624s16.375,6.25,22.625,0    l22.625-22.624c6.25-6.271,6.25-16.376,0-22.625C147.938,351.583,137.812,351.562,131.562,357.834z M112,256    c0-8.833-7.167-16-16-16H64c-8.833,0-16,7.167-16,16s7.167,16,16,16h32C104.833,272,112,264.833,112,256z M448,240h-32    c-8.833,0-16,7.167-16,16s7.167,16,16,16h32c8.833,0,16-7.167,16-16S456.833,240,448,240z M131.541,154.167    c6.251,6.25,16.376,6.25,22.625,0c6.251-6.25,6.251-16.375,0-22.625l-22.625-22.625c-6.25-6.25-16.374-6.25-22.625,0    c-6.25,6.25-6.25,16.375,0,22.625L131.541,154.167z M380.459,357.812c-6.271-6.25-16.376-6.25-22.625,0    c-6.251,6.25-6.271,16.375,0,22.625l22.625,22.625c6.249,6.25,16.374,6.25,22.624,0s6.25-16.375,0-22.625L380.459,357.812z"></path>
      </g>
    </g>
  </symbol>
  <symbol fill="none" xmlns="http://www.w3.org/2000/svg" viewBox="0 0 512 512" id="typescript">
    <rect fill="#3178c6" height="512" rx="50" width="512"></rect>
    <rect fill="#3178c6" height="512" rx="50" width="512"></rect>
    <path clip-rule="evenodd" d="m316.939 407.424v50.061c8.138 4.172 17.763 7.3 28.875 9.386s22.823 3.129 35.135 3.129c11.999 0 23.397-1.147 34.196-3.442 10.799-2.294 20.268-6.075 28.406-11.342 8.138-5.266 14.581-12.15 19.328-20.65s7.121-19.007 7.121-31.522c0-9.074-1.356-17.026-4.069-23.857s-6.625-12.906-11.738-18.225c-5.112-5.319-11.242-10.091-18.389-14.315s-15.207-8.213-24.18-11.967c-6.573-2.712-12.468-5.345-17.685-7.9-5.217-2.556-9.651-5.163-13.303-7.822-3.652-2.66-6.469-5.476-8.451-8.448-1.982-2.973-2.974-6.336-2.974-10.091 0-3.441.887-6.544 2.661-9.308s4.278-5.136 7.512-7.118c3.235-1.981 7.199-3.52 11.894-4.615 4.696-1.095 9.912-1.642 15.651-1.642 4.173 0 8.581.313 13.224.938 4.643.626 9.312 1.591 14.008 2.894 4.695 1.304 9.259 2.947 13.694 4.928 4.434 1.982 8.529 4.276 12.285 6.884v-46.776c-7.616-2.92-15.937-5.084-24.962-6.492s-19.381-2.112-31.066-2.112c-11.895 0-23.163 1.278-33.805 3.833s-20.006 6.544-28.093 11.967c-8.086 5.424-14.476 12.333-19.171 20.729-4.695 8.395-7.043 18.433-7.043 30.114 0 14.914 4.304 27.638 12.912 38.172 8.607 10.533 21.675 19.45 39.204 26.751 6.886 2.816 13.303 5.579 19.25 8.291s11.086 5.528 15.415 8.448c4.33 2.92 7.747 6.101 10.252 9.543 2.504 3.441 3.756 7.352 3.756 11.733 0 3.233-.783 6.231-2.348 8.995s-3.939 5.162-7.121 7.196-7.147 3.624-11.894 4.771c-4.748 1.148-10.303 1.721-16.668 1.721-10.851 0-21.597-1.903-32.24-5.71-10.642-3.806-20.502-9.516-29.579-17.13zm-84.159-123.342h64.22v-41.082h-179v41.082h63.906v182.918h50.874z" fill="#fff" fill-rule="evenodd"></path>
  </symbol>
</svg>