<?xml version="1.0" encoding="utf-8"?>
<!-- Generator: Adobe Illustrator 26.3.1, SVG Export Plug-In . SVG Version: 6.00 Build 0)  -->
<svg version="1.1" id="Layer_2_00000051374648097158141440000018384928172264277690_"
	 xmlns="http://www.w3.org/2000/svg" xmlns:xlink="http://www.w3.org/1999/xlink" x="0px" y="0px" viewBox="0 0 3454.4 3059.7"
	 style="enable-background:new 0 0 3454.4 3059.7;" xml:space="preserve">
<style type="text/css">
	.st0{fill:#00D8FF;}
	.st1{fill:none;stroke:#00D8FF;stroke-width:144.7456;stroke-miterlimit:10;}
</style>
<ellipse transform="matrix(0.7071 -0.7071 0.7071 0.7071 -572.4523 1665.6543)" class="st0" cx="1724.4" cy="1523.8" rx="302.6" ry="302.6"/>
<path class="st1" d="M1724.4,908.6c406.2,0,783.6,58.3,1068.1,156.2c342.8,118,553.6,296.9,553.6,458.9
	c0,168.8-223.4,358.9-591.5,480.8c-278.3,92.2-644.6,140.4-1030.2,140.4c-395.4,0-769.7-45.2-1051.2-141.4
	c-356.1-121.7-570.6-314.2-570.6-479.8c0-160.7,201.3-338.2,539.3-456C927.5,968.2,1314.2,908.6,1724.4,908.6L1724.4,908.6z"/>
<path class="st1" d="M1188.9,1218c202.9-351.9,442-649.7,669-847.2c273.5-238,533.8-331.2,674.1-250.3
	c146.2,84.3,199.3,372.8,121,752.7c-59.2,287.2-200.4,628.5-393.1,962.6c-197.5,342.5-423.7,644.2-647.6,840
	c-283.3,247.7-557.3,337.3-700.7,254.6c-139.2-80.3-192.4-343.3-125.7-695C842.3,1938,983.9,1573.3,1188.9,1218L1188.9,1218z"/>
<path class="st1" d="M1189.4,1836.5c-203.5-351.6-342.1-707.4-399.9-1002.7c-69.6-355.8-20.4-627.9,119.8-709
	c146.1-84.6,422.5,13.5,712.5,271c219.3,194.7,444.4,487.5,637.6,821.3c198.1,342.2,346.6,688.8,404.3,980.5
	c73.1,369.2,13.9,651.3-129.4,734.2c-139.1,80.5-393.5-4.7-664.9-238.2C1640.2,2496.3,1394.9,2191.5,1189.4,1836.5L1189.4,1836.5z"
	/>
</svg>
